# xmcd
#
# Track frame offsets: 
#        183
#        15978
#        27900
#        43548
#        58063
#        69943
#        87018
#        100480
#        118490
#        134100
#        145328
#        159230
#        174728
#        188953
#
# Disc length: 2746 seconds
#
# Revision: 4
# Processed by: cddbd v1.5.2PL0 Copyright (c) Steve Scherf et al.
# Submitted via: ExactAudioCopy v0.99pb4
#
DISCID=c40ab80e
DTITLE=Billie Holiday - The Billie Holiday Songbook
DYEAR=1986
DGENRE=Jazz
TTITLE0=Good Morning Heartache
TTITLE1=My Man
TTITLE2=Billie's Blues
TTITLE3=What A Little Moonlight Can Do
TTITLE4=Don't Explain
TTITLE5=Lady Sings The Blues
TTITLE6=Lover Man
TTITLE7=God Bless The Child
TTITLE8=Fine And Mellow
TTITLE9=I Cried For You
TTITLE10=Strange Fruit
TTITLE11=Stormy Blues
TTITLE12=Trav'lin' Light
TTITLE13=I Cover The Waterfront
EXTD=YEAR: 1986
EXTT0=
EXTT1=
EXTT2=
EXTT3=
EXTT4=
EXTT5=
EXTT6=
EXTT7=
EXTT8=
EXTT9=
EXTT10=
EXTT11=
EXTT12=
EXTT13=
PLAYORDER=
